<svg xmlns="http://www.w3.org/2000/svg" width="256" height="256"><path fill="#1976D2" fill-opacity=".016" fill-rule="evenodd" d="M0 128.004v128.004l128.25-.254 128.25-.254.254-127.75L257.008 0H0zm.485.496c0 70.4.119 99.053.265 63.672.146-35.38.146-92.98 0-128C.604 29.153.485 58.1.485 128.5"/><path fill="#1976D2" fill-opacity=".151" fill-rule="evenodd" d="M110.808 1.547c-12.933 3.136-26.961 11.881-34.9 21.755-4.913 6.111-11.177 18.725-13.505 27.198-.962 3.499-1.836 11.419-2.097 19-.397 11.522-.163 14.106 2.062 22.734 3.885 15.074 12.987 34.892 24.549 53.455l2.997 4.811-16.602.5-16.601.5-11.457 27c-6.302 14.85-12.364 29.25-13.473 32s-4.438 10.312-7.398 16.804c-2.961 6.493-5.383 12.23-5.383 12.75 0 .583 20.735.946 54 .946h54v15h61.277c54.039 0 61.543-.185 63.517-1.568 1.232-.863 1.98-1.988 1.664-2.5-.317-.513-.099-.932.483-.932s1.06-.787 1.061-1.75c.003-2.16-45.079-107.62-46.204-108.085-.446-.185-.575-.717-.288-1.182.288-.465-.484-1.552-1.716-2.415-1.795-1.257-5.249-1.568-17.412-1.568h-15.173l5.721-11.28c11.869-23.399 15.587-37.644 14.805-56.715-.875-21.356-6.622-34.986-20.686-49.061C164.548 9.435 155.674 4.3 144 1.557c-8.037-1.889-25.424-1.894-33.192-.01m9.899 45.081c-10.428 3.171-17.217 14.907-14.698 25.408 2.534 10.565 10.965 17.272 21.592 17.177 10.423-.094 18.436-6.37 21.063-16.5 4.262-16.428-11.464-31.101-27.957-26.085"/><path fill="#1976D2" fill-opacity=".39" fill-rule="evenodd" d="M115.763 1.033C90.06 5.361 70.027 24.161 62.825 50.713c-3.153 11.623-3.102 30.758.111 42.287 4.185 15.015 14.058 36.116 24.67 52.726l3.338 5.226-16.678.274-16.679.274-10.912 25.298c-6.003 13.913-10.747 25.449-10.544 25.635.203.186 15.164-7.26 33.246-16.547 18.083-9.287 33.158-16.871 33.5-16.853.343.018 3.247 3.61 6.454 7.982C116.924 187.366 123.827 195 125.593 195c1.164 0 1.407 3.583 1.407 20.777 0 25.878-.288 25.223 11.11 25.223h7.996l36.418-18.75c20.031-10.312 36.443-19.2 36.472-19.75.029-.55-4.786-12.363-10.7-26.25L197.544 151l-13.522.012c-12.475.011-13.851.2-17.772 2.442-2.338 1.337-4.25 2.226-4.25 1.977 0-.249 2.262-4.062 5.027-8.474 7.676-12.248 17.393-31.388 21.302-41.957 9.534-25.785 8.686-48.644-2.615-70.473C172.927 9.83 144.462-3.8 115.763 1.033M118.5 46.9c-15.147 7.028-18.083 26.144-5.727 37.283 9.074 8.181 21.391 7.689 30.331-1.211 5.946-5.92 7.792-12.392 5.92-20.754C146.096 49.134 130.525 41.32 118.5 46.9M47.055 214.395 25.611 225.5l-3.21 7.75-3.21 7.75h90.289L90.5 222c-10.439-10.45-19.66-18.935-20.49-18.855-.831.08-11.16 5.143-22.955 11.25m155.154 14.442L179.918 240.5l14.041.277c7.723.153 20.27.153 27.883 0l13.842-.277-4.995-11.75c-2.748-6.463-5.264-11.711-5.593-11.663-.328.048-10.627 5.335-22.887 11.75"/><path fill="#1976D2" fill-opacity=".646" fill-rule="evenodd" d="M127 22.252v22.485l4.101.55C141.527 46.685 150 56.643 150 67.5c0 10.857-8.473 20.815-18.899 22.213l-4.101.55v52.369c0 59.238-.449 56.458 7.7 47.708 12.993-13.952 33.724-44.844 44.856-66.84 11.539-22.801 16.246-40.823 14.885-57-1.567-18.629-7.762-33.388-19.066-45.417C164.19 9.18 150.139 2.227 133.75.485L127-.233z"/></svg>